<svg width="31" height="39" viewBox="0 0 31 39" fill="none" xmlns="http://www.w3.org/2000/svg">
<path d="M15.3374 0.139648C11.4032 0.144368 7.63152 1.73558 4.84962 4.56423C2.06773 7.39288 0.502826 11.228 0.498185 15.2283C0.493473 18.4974 1.54365 21.6777 3.48762 24.2815C3.48762 24.2815 3.89232 24.8233 3.95843 24.9015L15.3374 38.5471L26.7218 24.8946C26.7812 24.8219 27.1872 24.2815 27.1872 24.2815L27.1886 24.2774C29.1316 21.6747 30.1813 18.4959 30.1767 15.2283C30.172 11.228 28.6071 7.39288 25.8252 4.56423C23.0433 1.73558 19.2716 0.144368 15.3374 0.139648ZM15.3374 20.7151C14.2702 20.7151 13.2269 20.3933 12.3395 19.7904C11.4521 19.1875 10.7605 18.3306 10.3521 17.328C9.94367 16.3254 9.83681 15.2222 10.045 14.1579C10.2532 13.0936 10.7672 12.1159 11.5218 11.3486C12.2765 10.5812 13.238 10.0587 14.2847 9.84695C15.3314 9.63524 16.4164 9.7439 17.4024 10.1592C18.3884 10.5745 19.2312 11.2777 19.8241 12.18C20.417 13.0823 20.7335 14.1431 20.7335 15.2283C20.7317 16.6829 20.1626 18.0775 19.1511 19.106C18.1395 20.1346 16.768 20.7133 15.3374 20.7151Z" fill="black"/>
<circle cx="15.3376" cy="14.9784" r="6.11028" fill="#FFC60A"/>
</svg>
